<svg id="Layer_2" data-name="Layer 2" xmlns="http://www.w3.org/2000/svg" viewBox="0 0 180 180"><defs><style>.cls-1{fill:#79a617;}</style></defs><path class="cls-1" d="M128.74,155.89H51.26A38.63,38.63,0,0,1,12.68,117.3V62.7A38.63,38.63,0,0,1,51.26,24.11h77.48A38.63,38.63,0,0,1,167.32,62.7v54.6A38.63,38.63,0,0,1,128.74,155.89Zm-77.48-118A24.86,24.86,0,0,0,26.43,62.7v54.6a24.86,24.86,0,0,0,24.83,24.84h77.48a24.86,24.86,0,0,0,24.83-24.84V62.7a24.86,24.86,0,0,0-24.83-24.84Z"/><ellipse class="cls-1" cx="132.46" cy="53.06" rx="6.56" ry="6.64" transform="translate(1.28 109.21) rotate(-45)"/><path class="cls-1" d="M90,132.42A42.42,42.42,0,1,1,132.42,90,42.47,42.47,0,0,1,90,132.42Zm0-69.94A27.52,27.52,0,1,0,117.52,90,27.56,27.56,0,0,0,90,62.48Z"/></svg>