<svg xmlns="http://www.w3.org/2000/svg" viewBox="0 0 180 180"><defs><style>.cls-1{fill:#79a617;}</style></defs><g id="Layer_4" data-name="Layer 4"><path class="cls-1" d="M171.41,100.41l-6.84-6L114.43,45.51A32.78,32.78,0,0,0,90,36.07a32.78,32.78,0,0,0-24.43,9.44L15.43,94.42l-6.84,6a21,21,0,0,0-7,17.48,21.28,21.28,0,0,0,4.29,14.44,2.7,2.7,0,0,0,1.88,1c.24.3.47.59.72.88.17-.16.33-.32.51-.47L75.87,75.1A23.87,23.87,0,0,1,90,69.44a23.87,23.87,0,0,1,14.13,5.66l66.93,58.66c.18.15.34.31.51.47.25-.29.48-.58.72-.88a2.7,2.7,0,0,0,1.88-1,21.28,21.28,0,0,0,4.29-14.44A21,21,0,0,0,171.41,100.41Z"/></g></svg>