<svg id="Layer_1" data-name="Layer 1" xmlns="http://www.w3.org/2000/svg" viewBox="0 0 180 180"><defs><style>.cls-1{fill:#79a617;}.cls-2{fill:#ebebeb;}</style></defs><g id="Layer_4" data-name="Layer 4"><path class="cls-1" d="M151.66,132,98.73,85.6a13.85,13.85,0,0,0-7.86-3.22A13.91,13.91,0,0,0,83,85.65L30.07,132l-.17.16-3.81,3.59L23,132.13a7.2,7.2,0,0,1-2.45-1.94l-.08-.11A21.84,21.84,0,0,1,16,115.67,21.69,21.69,0,0,1,23.25,98.1l5.32-4.67L68.08,54.89A30.69,30.69,0,0,1,89.77,46c.37,0,.73,0,1.1,0s.73,0,1.09,0a30.72,30.72,0,0,1,21.72,8.92l39.49,38.51,5.3,4.65a21.74,21.74,0,0,1,7.29,17.61,21.79,21.79,0,0,1-4.43,14.41l-.07.1a7.23,7.23,0,0,1-2.45,1.95l-3.14,3.65Z"/><path class="cls-2" d="M92,51a25.88,25.88,0,0,1,18.21,7.48l39.6,38.62,5.41,4.74a16.6,16.6,0,0,1,5.56,13.83,16.8,16.8,0,0,1-3.38,11.4,2.14,2.14,0,0,1-1.49.79c-.19.24-.37.47-.57.7a4.61,4.61,0,0,0-.4-.37L102,81.84a18.81,18.81,0,0,0-11.16-4.47,18.81,18.81,0,0,0-11.16,4.47L26.88,128.17l-.41.37-.56-.7a2.09,2.09,0,0,1-1.49-.79A16.8,16.8,0,0,1,21,115.65a16.58,16.58,0,0,1,5.53-13.81L32,97.1,71.57,58.47A25.86,25.86,0,0,1,89.77,51c.37,0,.73,0,1.1,0s.73,0,1.09,0m0-10H89.77a35.67,35.67,0,0,0-25.2,10.34L25.17,89.76,20,94.32a26.77,26.77,0,0,0-9,21.38,26.84,26.84,0,0,0,5.45,17.41l.08.1.08.11a12.1,12.1,0,0,0,3.14,2.75l6,6.91,7.61-7.16.13-.13h0L86.24,89.42a8.86,8.86,0,0,1,4.63-2,8.86,8.86,0,0,1,4.63,2l52.81,46.28h0l.14.13,7.6,7.16,6-6.91a12,12,0,0,0,3.14-2.76l.08-.1.08-.1a26.75,26.75,0,0,0,5.45-17.42,26.69,26.69,0,0,0-9-21.37l-5.21-4.58-39.4-38.42A35.67,35.67,0,0,0,92,41Z"/></g></svg>