<svg id="Layer_1" data-name="Layer 1" xmlns="http://www.w3.org/2000/svg" viewBox="0 0 180 180"><defs><style>.cls-1{fill:#79a617;}</style></defs><path class="cls-1" d="M175.87,90.11c-8.67-27-18.6-39.32-38.43-49.45A110.64,110.64,0,0,0,105,29.22a181.51,181.51,0,0,0-25.21-1.39c1.17-9,.9-19.43-3.37-26.43C70.17-8.82,1.6,65.27-.36,71.66c-1.72,5.61,71.94,76.79,77,66.51,2.71-5.44,1.67-13,1.72-18.87,0-6.8,0-13.59.11-20.38,13.45-.86,32.5-1.73,40.1,8.32,9.3,12.32-51.15,61.93-46.52,63.77C136.71,196.73,196.45,154.13,175.87,90.11Z"/></svg>