<?xml version="1.0" standalone="no"?>
<!DOCTYPE svg PUBLIC "-//W3C//DTD SVG 20010904//EN"
 "http://www.w3.org/TR/2001/REC-SVG-20010904/DTD/svg10.dtd">
<svg version="1.0" xmlns="http://www.w3.org/2000/svg"
 width="700.000000pt" height="700.000000pt" viewBox="0 0 700.000000 700.000000"
 preserveAspectRatio="xMidYMid meet">
<metadata>
Created by potrace 1.14, written by Peter Selinger 2001-2017
</metadata>
<g transform="translate(0.000000,700.000000) scale(0.100000,-0.100000)"
fill="#000000" stroke="none">
<path d="M3677 6984 c-1 -2 -27 -6 -57 -9 -159 -17 -291 -78 -393 -178 -70
-69 -72 -70 -101 -58 -17 7 -80 31 -141 53 -131 48 -137 50 -150 53 -5 2 -39
11 -75 20 -36 9 -76 19 -90 21 -14 2 -34 6 -46 9 -99 22 -302 25 -386 5 -127
-30 -239 -113 -287 -212 -25 -53 -27 -55 -62 -62 -127 -27 -338 -96 -451 -147
-275 -126 -376 -258 -307 -404 12 -25 26 -48 31 -51 5 -3 -13 -20 -39 -36 -53
-34 -60 -40 -149 -125 -193 -183 -212 -371 -54 -531 l51 -51 -45 -133 c-24
-73 -47 -144 -49 -158 -3 -14 -13 -65 -22 -115 -30 -156 -20 -307 25 -393 51
-100 136 -144 281 -146 l57 -1 68 -79 c139 -161 341 -294 505 -332 75 -18 125
-22 219 -19 151 4 285 46 443 140 44 25 48 26 109 15 35 -7 74 -13 88 -15 14
-2 39 -6 55 -9 17 -3 60 -10 98 -17 37 -6 68 -14 68 -18 9 -51 12 -443 4 -626
-6 -156 -15 -323 -20 -370 -2 -22 -7 -74 -10 -115 -8 -104 -38 -373 -50 -450
-2 -14 -7 -47 -10 -75 -3 -27 -10 -75 -15 -105 -5 -30 -12 -73 -15 -95 -40
-276 -167 -840 -270 -1198 -81 -279 -272 -815 -331 -929 l-15 -28 1313 0
c1198 1 1309 2 1269 16 -94 33 -174 99 -257 211 -30 40 -54 74 -54 77 0 3 -13
27 -28 53 -57 97 -129 287 -205 540 -34 113 -115 509 -142 693 -5 33 -16 109
-20 140 -12 80 -40 312 -50 420 -3 30 -7 75 -10 100 -11 110 -33 387 -40 520
-3 52 -7 127 -10 165 -4 69 -10 206 -21 485 -6 166 -7 350 -2 356 2 2 38 -5
79 -16 42 -10 102 -23 135 -29 32 -6 70 -13 84 -16 213 -44 606 -53 759 -19
249 57 400 161 485 336 l43 88 110 73 c125 84 112 73 219 166 99 85 153 145
211 234 63 97 85 165 87 267 1 75 -3 92 -30 150 -17 36 -45 82 -62 101 l-30
35 45 69 c124 192 179 373 156 510 -28 165 -136 269 -348 337 -58 18 -105 38
-105 45 0 33 -78 243 -130 348 -120 245 -269 400 -432 449 -63 18 -183 19
-253 1 -33 -8 -100 -35 -148 -59 l-88 -44 -97 33 c-158 54 -379 105 -567 131
-51 6 -322 13 -328 8z"/>
</g>
</svg>
