<svg xmlns="http://www.w3.org/2000/svg" viewBox="0 0 78.64 24.68"><defs><style>.cls-1{opacity:0.3;}.cls-2{fill:#79a617;}</style></defs><g id="Layer_2" data-name="Layer 2"><g id="logo41"><g id="logo_13"><path d="M51.79,8.81l-2.65-.88c0,.31,0,.61.07.92l2.59.79C51.79,9.32,51.79,9,51.79,8.81Z"/><path d="M51.8,8.14c-.72.72-2.69-.44-2.69-.44l0,.23,2.65.88C51.79,8.39,51.8,8.14,51.8,8.14Z"/><path d="M54,18.67c-1.89-.54-2.2-6.25-2.24-9l-2.59-.79a21,21,0,0,1-1.89,9.82H54Z"/><path class="cls-1" d="M51.79,8.81l-2.65-.88c0,.31,0,.61.07.92l2.59.79C51.79,9.32,51.79,9,51.79,8.81Z"/><path class="cls-2" d="M50.79,8.53s4.5,1.65,5.16-.59c0,0,2.55-1.37,1.32-2.67,0,0,1.58-2-.64-2.45,0,0-.72-3.17-2.73-1.86,0,0-3-1.17-3.94.23,0,0-2.67-1.27-3.22.23,0,0-2.82.58-2,1.62,0,0-1.69,1-.51,1.91,0,0-1.13,2.65.64,2.45a2.36,2.36,0,0,0,3.33.7"/></g><path class="cls-2" d="M4,13.17l0,5.36-2.65,0,0-5.36H.51V11h.81l0-4.85A3.64,3.64,0,0,1,5.13,2.22l0,2.32c-.67,0-1.23.45-1.22,1.59L4,11H4.8v2.21Z"/><path class="cls-2" d="M14.66,14.66a4.24,4.24,0,0,1-4.48,4.16,4.24,4.24,0,0,1-4.54-4.1,4.23,4.23,0,0,1,4.48-4.14A4.24,4.24,0,0,1,14.66,14.66Zm-6.31,0a1.8,1.8,0,1,0,1.78-1.83A1.78,1.78,0,0,0,8.35,14.7Z"/><path class="cls-2" d="M18.44,18.43l-2.65,0-.06-7.58,2.53,0v1.69a2.76,2.76,0,0,1,2.2-1.79h.25l0,3a1.61,1.61,0,0,0-.48-.06c-1.12,0-1.85.71-1.85,1.19Z"/><path d="M25.23,7.81l.08,10.57-3,0L22.21,2.83l2.94,0,7.63,10.45-.07-10.5,3,0,.12,15.57-2.88,0Z"/><path d="M42.84,17.79a3.67,3.67,0,0,1-2.48.79c-1.88,0-3.08-1-3.09-2.46s1.15-2.52,3.11-2.53a3.67,3.67,0,0,1,2.24.61v-.13c0-1-.8-1.49-2.08-1.49a6.82,6.82,0,0,0-1.64.25l-.48-2a12.27,12.27,0,0,1,2.86-.34c2.57,0,4,1.33,4,3.12l0,4.64-2.46,0ZM42.66,16c0-.6-.55-1-1.37-1S40,15.43,40,16s.49,1,1.31,1S42.66,16.6,42.66,16Z"/><path d="M60,17.48a3.14,3.14,0,0,1-2.49,1.23,2.65,2.65,0,0,1-2.72-2.78l0-4.95,2.65,0,0,4.13c0,.9.49,1.27,1.18,1.27a1.19,1.19,0,0,0,1.22-1.16l0-4.26,2.65,0,.06,7.58-2.51,0Z"/><path d="M66.64,18.47l-2.65,0-.06-7.58,2.53,0v1.69a2.75,2.75,0,0,1,2.2-1.79h.25l0,3a1.61,1.61,0,0,0-.48-.06c-1.13,0-1.85.7-1.85,1.18Z"/><path d="M74.47,18.75c-3,0-4.77-1.66-4.79-4.1A4,4,0,0,1,74,10.5a4.08,4.08,0,0,1,4.21,4.11v.75l-5.7,0c.22,1,.93,1.33,2,1.32a4,4,0,0,0,2.31-.79l1.3,1.56A5.82,5.82,0,0,1,74.47,18.75Zm-1.92-4.87,2.91,0a1.47,1.47,0,0,0-2.91,0Z"/></g></g></svg>